<svg width="18" height="18" viewBox="0 0 18 18" fill="none" xmlns="http://www.w3.org/2000/svg">
<path d="M16.8341 1.16593C15.2846 -0.387342 12.7649 -0.387342 11.2155 1.16593L0.913981 11.4636C0.833441 11.5441 0.783583 11.6477 0.768242 11.7589L0.0050275 17.412C-0.017984 17.5731 0.0395447 17.7342 0.150767 17.8454C0.246648 17.9413 0.380882 17.9988 0.515115 17.9988C0.538127 17.9988 0.561138 17.9988 0.58415 17.995L3.98985 17.5348C4.27366 17.4964 4.47309 17.2356 4.43474 16.9518C4.39638 16.668 4.13559 16.4686 3.85178 16.5069L1.12108 16.8751L1.65418 12.9325L5.80392 17.0822C5.8998 17.1781 6.03403 17.2356 6.16827 17.2356C6.3025 17.2356 6.43674 17.1819 6.53262 17.0822L16.8341 6.78457C17.5858 6.03286 18 5.0357 18 3.97333C18 2.91097 17.5858 1.91381 16.8341 1.16593ZM11.4149 2.43156L13.1446 4.16126L3.74439 13.5614L2.0147 11.8318L11.4149 2.43156ZM6.1721 15.9853L4.48076 14.294L13.8809 4.89379L15.5723 6.58514L6.1721 15.9853ZM16.2933 5.84493L12.1551 1.7067C12.6805 1.27332 13.3363 1.03553 14.0267 1.03553C14.8129 1.03553 15.5493 1.34235 16.1054 1.89463C16.6615 2.4469 16.9645 3.18711 16.9645 3.97333C16.9645 4.66751 16.7267 5.3195 16.2933 5.84493Z" fill="#828282"/>
</svg>
