<svg width="15" height="18" viewBox="0 0 15 18" fill="none" xmlns="http://www.w3.org/2000/svg">
<path fill-rule="evenodd" clip-rule="evenodd" d="M15 4H0V2.5H15V4Z" fill="#828282"/>
<path d="M2.5 5V15C2.5 15.5523 3.44772 16.5 4 16.5H11C11.5523 16.5 12.5 15.5523 12.5 15V5H13.9999V15C13.9999 16.6569 12.6567 18 10.9999 18H3.99988C2.34302 18 0.999878 16.6569 0.999878 15V5H2.5Z" fill="#828282"/>
<path fill-rule="evenodd" clip-rule="evenodd" d="M5 14L5 7L6.5 7L6.5 14L5 14Z" fill="#828282"/>
<path fill-rule="evenodd" clip-rule="evenodd" d="M8.5 14V7H10V14H8.5Z" fill="#828282"/>
<path d="M9.5 1.5H5.5V3H4V1C4 0.447715 4.44772 0 5 0H10C10.5523 0 11 0.447715 11 1V3H9.5V1.5Z" fill="#828282"/>
</svg>
